PathFileType	4	(X/Y/Z)	C:/Users/opensim2020/Desktop/walking_exp_matlab/subject02_walking07_straight_02.trc																																																																																																																																																				
DataRate	CameraRate	NumFrames	NumMarkers	Units	OrigDataRate	OrigDataStartFrame	OrigNumFrames																																																																																																																																																
100	100	4	50	mm	100	1462	210																																																																																																																																																
Frame#	Time	LFHD			RFHD			LBHD			RBHD			C7			T10			CLAV			STRN			RBAK			LSHO			LUPA			LELB			LFRM			LWRA			LWRB			LFIN			RSHO			RUPA			RELB			RFRM			RWRA			RWRB			RFIN			LASI			RASI			LPSI			RPSI			LTHI			LKNE			LTIB			LANK			LHEE			LTOE			RTHI			RKNE			RTIB			RANK			RHEE			RTOE			*39			*40			*41			*42			*43			*44			*45			*46			*47			*48			*49		
		X1	Y1	Z1	X2	Y2	Z2	X3	Y3	Z3	X4	Y4	Z4	X5	Y5	Z5	X6	Y6	Z6	X7	Y7	Z7	X8	Y8	Z8	X9	Y9	Z9	X10	Y10	Z10	X11	Y11	Z11	X12	Y12	Z12	X13	Y13	Z13	X14	Y14	Z14	X15	Y15	Z15	X16	Y16	Z16	X17	Y17	Z17	X18	Y18	Z18	X19	Y19	Z19	X20	Y20	Z20	X21	Y21	Z21	X22	Y22	Z22	X23	Y23	Z23	X24	Y24	Z24	X25	Y25	Z25	X26	Y26	Z26	X27	Y27	Z27	X28	Y28	Z28	X29	Y29	Z29	X30	Y30	Z30	X31	Y31	Z31	X32	Y32	Z32	X33	Y33	Z33	X34	Y34	Z34	X35	Y35	Z35	X36	Y36	Z36	X37	Y37	Z37	X38	Y38	Z38	X39	Y39	Z39	X40	Y40	Z40	X41	Y41	Z41	X42	Y42	Z42	X43	Y43	Z43	X44	Y44	Z44	X45	Y45	Z45	X46	Y46	Z46	X47	Y47	Z47	X48	Y48	Z48	X49	Y49	Z49	X50	Y50	Z50
																																																																																																																																																							
132	1.31	457.74075	1718.78723	935.48541	452.84677	1706.50195	1078.67407	322.63345	1652.80664	926.5473	304.93527	1640.14099	1069.20129	261.99667	1510.35327	1013.63312	214.01956	1234.49524	1035.48853	403.53455	1444.54102	995.58759	459.7995	1275.71216	1022.02252	213.16908	1340.78015	1095.9248	314.12314	1470.22156	832.34521	245.7576	1279.63159	771.31787	203.90005	1146.84717	774.49347	159.3221	1025.03137	759.65088	167.59868	884.05554	770.44745	118.6165	908.05322	755.25452	106.79269	841.87927	749.05042	354.685	1497.20911	1193.70032	379.52252	1314.95422	1298.12756	444.54221	1184.34985	1330.32605	525.23956	1094.55115	1347.99475	624.43512	1005.47656	1327.43237	588.58966	981.6322	1363.78015	652.54791	948.73291	1366.04224	459.30145	976.34137	918.46033	433.81427	960.59595	1174.33801	240.78018	1015.04596	979.40289	227.01224	1017.21533	1092.46765	457.62534	673.3905	842.8446	495.38416	476.74695	875.83423	514.18439	284.0914	875.53009	613.46564	79.82103	891.3656	600.4859	43.83128	948.93689	766.74988	91.82255	859.02844	303.41202	660.28815	1216.59778	259.83322	454.09796	1170.20178	170.1188	286.88754	1167.00598	106.65778	104.31094	1121.97632	65.88638	55.25926	1062.84094	248.08516	35.43575	1146.19995	358.52475	1795.14893	1019.38953	NaN	NaN	NaN	NaN	NaN	NaN	NaN	NaN	NaN	NaN	NaN	NaN	NaN	NaN	NaN	NaN	NaN	NaN	NaN	NaN	NaN	NaN	NaN	NaN	NaN	NaN	NaN	NaN	NaN	NaN
133	1.32	466.60101	1717.17688	933.5163	462.10995	1705.2113	1076.90588	331.61331	1651.65613	924.89545	314.04587	1639.09924	1067.64551	271.11371	1508.99744	1012.00806	223.61156	1233.06641	1033.8302	412.85498	1443.55493	993.93323	469.90964	1274.91443	1020.52783	222.36893	1339.44031	1094.84778	323.315	1468.99133	830.73932	256.50012	1277.99561	769.6554	213.86595	1145.38452	772.5874	169.9894	1023.38568	757.87177	178.16823	882.40192	768.64813	129.05855	906.45966	753.25	117.26114	840.41547	747.2865	363.77899	1495.8811	1192.21667	388.87445	1313.28845	1295.84338	454.40866	1182.94836	1328.09448	535.4812	1093.56506	1345.66211	635.05603	1004.95062	1324.86353	599.24005	980.79291	1361.12927	663.33051	948.28802	1363.43713	470.01328	975.34692	917.16101	443.73465	959.3493	1173.05701	251.32463	1013.5965	977.71265	237.07722	1015.97552	1090.63818	470.81442	672.90582	842.08728	507.48666	476.05435	874.58295	524.44891	283.09644	874.15869	621.15308	77.82566	891.63397	607.86023	42.07241	949.15985	774.81561	88.85767	860.65295	311.25317	659.72046	1215.79382	266.26309	453.79572	1170.13538	173.94238	287.8735	1166.89624	107.66171	106.19897	1122.35498	66.31851	57.70984	1063.1394	248.19774	35.4092	1146.48926	367.90009	1793.81494	1017.63428	NaN	NaN	NaN	NaN	NaN	NaN	NaN	NaN	NaN	NaN	NaN	NaN	NaN	NaN	NaN	NaN	NaN	NaN	NaN	NaN	NaN	NaN	NaN	NaN	NaN	NaN	NaN	NaN	NaN	NaN
134	1.33	475.67197	1715.8186	931.75311	471.38779	1703.95483	1075.07007	340.47165	1650.57886	923.43927	323.36893	1638.2926	1066.00989	280.40958	1507.77539	1010.56909	233.35698	1231.59021	1032.04761	422.12	1442.56921	992.30292	479.19727	1274.01563	1018.84009	231.89845	1337.88269	1092.65771	332.61209	1467.82092	829.06464	266.41748	1276.47815	767.82983	224.38203	1143.8418	770.55957	180.58694	1021.81244	755.74298	189.46364	880.79285	766.71118	140.21512	904.77826	751.00873	128.00221	838.53406	745.1239	372.88739	1494.61377	1190.56165	398.10544	1311.79333	1293.76685	463.94733	1181.56506	1325.78687	545.34149	1092.29529	1343.18762	645.25995	1004.02557	1322.12146	609.51569	979.72345	1358.25293	673.8587	947.41718	1360.55579	481.01923	974.4942	915.60962	453.98483	958.2052	1171.48572	261.75732	1012.22296	975.74225	247.42317	1014.71503	1088.60229	484.23776	672.672	840.95587	519.33423	475.25339	873.24811	533.88281	281.90735	872.94196	627.66925	75.59481	891.79681	612.9082	39.93853	948.89709	781.54358	85.08154	862.50244	319.32007	659.15698	1214.97559	272.91513	453.46323	1170.02441	177.96774	288.99576	1166.74805	108.78392	108.32022	1122.84619	67.03754	60.52915	1063.70239	248.43486	35.47336	1146.72229	377.17459	1792.64966	1015.58319	NaN	NaN	NaN	NaN	NaN	NaN	NaN	NaN	NaN	NaN	NaN	NaN	NaN	NaN	NaN	NaN	NaN	NaN	NaN	NaN	NaN	NaN	NaN	NaN	NaN	NaN	NaN	NaN	NaN	NaN
135	1.34	485.02957	1714.34155	930.16071	480.61325	1702.72363	1073.22498	349.55539	1649.43921	921.68738	332.50079	1637.2196	1064.29956	289.3418	1506.40186	1008.67145	243.20074	1230.04736	1030.13184	431.41925	1441.65991	990.57318	489.10138	1273.33057	1017.1557	241.39835	1336.34692	1090.98157	341.8663	1466.75769	827.33502	276.59631	1275.19519	765.7854	235.29716	1142.4043	768.58563	191.99255	1020.23505	753.64337	201.10019	879.01801	764.71863	152.42166	903.05304	748.72833	139.81017	836.71368	742.96472	381.99008	1493.41479	1188.81104	407.20065	1310.49841	1291.91638	473.19699	1180.19763	1323.68542	554.83484	1091.00159	1340.54138	655.02844	1003.27612	1319.4469	619.26782	978.56464	1355.40051	683.6026	946.4071	1357.55066	492.19077	973.69147	913.89655	464.49326	957.1684	1169.79468	272.216	1010.86707	973.53204	258.00671	1013.46405	1086.41492	497.20947	672.19092	839.66187	530.87048	474.27832	871.76898	542.41827	280.52469	871.88928	632.89539	72.98127	891.98737	617.04309	37.56693	949.1333	787.04773	80.64319	864.51825	327.64673	658.64221	1214.14514	279.77283	453.33182	1169.93372	182.14415	290.35999	1166.60938	110.05959	110.65725	1123.34399	67.68112	63.62687	1064.1355	248.67798	35.51049	1146.97168	386.58197	1791.50293	1013.98871	NaN	NaN	NaN	NaN	NaN	NaN	NaN	NaN	NaN	NaN	NaN	NaN	NaN	NaN	NaN	NaN	NaN	NaN	NaN	NaN	NaN	NaN	NaN	NaN	NaN	NaN	NaN	NaN	NaN	NaN
